<?xml version="1.0" encoding="UTF-8" standalone="no"?>
<svg
   xmlns:dc="http://purl.org/dc/elements/1.1/"
   xmlns:cc="http://creativecommons.org/ns#"
   xmlns:rdf="http://www.w3.org/1999/02/22-rdf-syntax-ns#"
   xmlns:svg="http://www.w3.org/2000/svg"
   xmlns="http://www.w3.org/2000/svg"
   id="svg8"
   version="1.1"
   viewBox="0 0 748 306.14"
   height="306.14"
   width="748">
  <metadata
     id="metadata14">
    <rdf:RDF>
      <cc:Work
         rdf:about="">
        <dc:format>image/svg+xml</dc:format>
        <dc:type
           rdf:resource="http://purl.org/dc/dcmitype/StillImage" />
        <dc:title></dc:title>
      </cc:Work>
    </rdf:RDF>
  </metadata>
  <defs
     id="defs12" />
  <path
     style="fill:#9775fa"
     id="path4"
     d="m 175.02246,292.51351 c -8.648,0 -16.812,-1.957 -22.971,-5.516 l -81.538996,-47.066 c -12.67,-7.313 -22.971,-25.168 -22.971,-39.791 v -94.136 c 0,-14.626003 10.301,-32.474003 22.971,-39.788003 l 81.538996,-47.072 c 6.158,-3.557 14.322,-5.518 22.971,-5.518 8.652,0 16.807,1.961 22.971,5.518 l 81.535,47.072 c 12.67,7.314 22.979,25.162 22.979,39.788003 v 94.136 c 0,14.623 -10.309,32.478 -22.979,39.796 l -81.535,47.062 c -6.165,3.558 -14.319,5.515 -22.971,5.515 z m 0,-74.975 55.83,-32.234 v -64.468 l -55.83,-32.229003 -55.836,32.229003 v 64.468 z" />
  <path
     style="fill:#231f20"
     id="path6"
     d="m 281.18046,63.493007 -81.576,-47.068 c -6.631,-3.834 -15.369,-5.940999 -24.564,-5.940999 -9.188,0 -17.921,2.106999 -24.552,5.940999 l -81.839996,47.068 c -13.759,7.95 -24.847,26.626 -24.847,42.510003 v 94.136 c 0,15.893 11.082,34.562 24.842,42.511 l 81.685996,47.068 c 6.631,3.825 15.43,5.938 24.617,5.938 9.195,0 17.952,-2.112 24.583,-5.938 l 81.632,-47.068 c 13.766,-7.944 24.641,-26.615 24.641,-42.511 v -94.136 c -10e-4,-15.894003 -10.857,-34.562003 -24.622,-42.510003 z m -127.559,-41.631 c 5.883,-3.398 13.643,-5.094 21.4,-5.094 7.762,0 15.516,1.695 21.4,5.094 l 70.029,40.429 0.209,104.945003 -32.859,19.253 v -67.465 l -0.076,-0.101 0.098,-35.164003 -90.484,-55.976 z m 74.18,100.790003 v 60.839 l -52.996,30.418 -53.004,-30.418 v -60.839 l 53.004,-30.422003 z m -144.999996,120.898 -10.793,-6.344 c -11.77,-6.794 -21.207,-23.47 -21.207,-37.067 v -83.856 l 90.284996,-50.222003 33.299,19.233 -91.583996,50.768003 z m 215.999996,-43.411 c 0,13.598 -9.35,30.273 -21.119,37.072 l -70.914,40.937 -90.967,-52.116 v -38.904 l 59.086,34.035 0.16,-0.055 30.064,19.89 93.689,-53.746 v 12.887 z" />
  <g
     id="flowRoot821"
     style="font-style:normal;font-weight:normal;font-size:104px;line-height:1.25;font-family:sans-serif;letter-spacing:0px;word-spacing:0px;fill:#000000;fill-opacity:1;stroke:none"
     transform="translate(27.066943,19.363679)"
     aria-label="Routex">
    <path
       id="path4674"
       style="font-style:normal;font-variant:normal;font-weight:bold;font-stretch:normal;font-size:104px;font-family:'Source Code Pro';-inkscape-font-specification:'Source Code Pro Bold';text-align:start;text-anchor:start"
       d="m 314.16672,166.98633 h 15.288 v -24.44 h 8.008 l 13,24.44 h 17.16 l -15.288,-27.144 c 7.176,-3.224 12.064,-9.568 12.064,-19.552 0,-16.12 -11.856,-21.112002 -26.208,-21.112002 h -24.024 z m 15.288,-36.608 v -19.032 h 7.488 c 8.112,0 12.376,2.288 12.376,8.944 0,6.656 -4.264,10.088 -12.376,10.088 z" />
    <path
       id="path4676"
       style="font-style:normal;font-variant:normal;font-weight:bold;font-stretch:normal;font-size:104px;font-family:'Source Code Pro';-inkscape-font-specification:'Source Code Pro Bold';text-align:start;text-anchor:start"
       d="m 400.44609,168.23433 c 13.624,0 26.312,-9.88 26.312,-27.04 0,-17.16 -12.688,-27.04 -26.312,-27.04 -13.624,0 -26.312,9.88 -26.312,27.04 0,17.16 12.688,27.04 26.312,27.04 z m 0,-12.376 c -7.072,0 -10.608,-5.72 -10.608,-14.664 0,-8.944 3.536,-14.664 10.608,-14.664 7.072,0 10.608,5.72 10.608,14.664 0,8.944 -3.536,14.664 -10.608,14.664 z" />
    <path
       id="path4678"
       style="font-style:normal;font-variant:normal;font-weight:bold;font-stretch:normal;font-size:104px;font-family:'Source Code Pro';-inkscape-font-specification:'Source Code Pro Bold';text-align:start;text-anchor:start"
       d="m 454.79747,168.23433 c 7.384,0 12.792,-3.432 17.368,-8.632 h 0.416 l 1.144,7.384 h 12.48 v -51.584 h -15.288 v 33.904 c -3.536,4.576 -6.24,5.928 -10.088,5.928 -5.72,0 -7.488,-3.12 -7.488,-9.984 v -29.848 h -15.288 v 31.824 c 0,13 4.992,21.008 16.744,21.008 z" />
    <path
       id="path4680"
       style="font-style:normal;font-variant:normal;font-weight:bold;font-stretch:normal;font-size:104px;font-family:'Source Code Pro';-inkscape-font-specification:'Source Code Pro Bold';text-align:start;text-anchor:start"
       d="m 534.31684,168.23433 c 6.864,0 12.272,-1.456 16.848,-2.808 l -2.704,-11.024 c -3.12,1.04 -6.344,1.872 -10.192,1.872 -7.592,0 -10.92,-3.016 -10.92,-10.816 v -18.096 h 21.84 v -11.96 h -21.84 V 99.594328 h -12.584 l -1.976,15.808002 -13.728,0.624 v 11.336 h 13 v 18.2 c 0,13.52 5.824,22.672 22.256,22.672 z" />
    <path
       id="path4682"
       style="font-style:normal;font-variant:normal;font-weight:bold;font-stretch:normal;font-size:104px;font-family:'Source Code Pro';-inkscape-font-specification:'Source Code Pro Bold';text-align:start;text-anchor:start"
       d="m 590.64422,168.23433 c 6.864,0 14.56,-2.288 20.488,-6.032 l -5.096,-9.256 c -4.576,2.392 -8.632,3.64 -13.312,3.64 -8.424,0 -13.936,-3.328 -15.392,-10.816 h 35.152 c 0.208,-1.248 0.728,-4.056 0.728,-6.864 0,-14.04 -8.424,-24.752 -24.336,-24.752 -13.832,0 -26.832,10.088 -26.832,27.04 0,17.16 12.48,27.04 28.6,27.04 z m -1.248,-42.432 c 5.928,0 9.464,3.328 10.192,9.672 h -22.048 c 1.56,-6.448 5.824,-9.672 11.856,-9.672 z" />
    <path
       id="path4684"
       style="font-style:normal;font-variant:normal;font-weight:bold;font-stretch:normal;font-size:104px;font-family:'Source Code Pro';-inkscape-font-specification:'Source Code Pro Bold';text-align:start;text-anchor:start"
       d="m 622.53159,166.98633 h 16.016 l 5.096,-8.528 c 1.56,-3.016 3.224,-6.032 4.784,-8.944 h 0.416 c 1.872,2.912 4.056,6.032 5.928,8.944 l 5.928,8.528 h 16.432 l -17.888,-25.064 16.848,-26.52 h -16.016 l -4.576,8.32 c -1.352,2.808 -2.912,5.928 -4.264,8.84 h -0.416 c -1.768,-2.912 -3.848,-5.928 -5.408,-8.84 l -5.304,-8.32 h -16.432 l 16.744,24.752 z" />
  </g>
</svg>
